{"title":"The.Adjustment.Bureau.2011.480p.BRRip.XviD.Ac3.Feel-Free","uid":6458119,"size":1216132723,"categoryP":"video","categoryS":"movies","magnet":"?xt=urn:btih:0e8e14269075dd949a0b6894bfe816819cf355c2&amp;dn=The.Adjustment.Bureau.2011.480p.BRRip.XviD.Ac3.Feel-Free&amp;tr=udp%3A%2F%2Ftracker.openbittorrent.com%3A80&amp;tr=udp%3A%2F%2Fopen.demonii.com%3A1337&amp;tr=udp%3A%2F%2Ftracker.coppersurfer.tk%3A6969&amp;tr=udp%3A%2F%2Fexodus.desync.com%3A6969","seeders":1,"leechers":0,"uploader":".BONE.","files":9,"time":1307655216,"description":"\nGenre:Romance | Thriller\nLanguage:English\n &lt;a href=&quot;\nhttp://www.imdb.com/title/tt1385826/&quot; rel=&quot;nofollow&quot; target=&quot;_NEW&quot;&gt;\nhttp://www.imdb.com/title/tt1385826/&lt;/a&gt;\n\nSource:720p.BluRay.x264-SiNNERS Thanks!\n\nFormat : AVI\nFormat/Info : Audio Video Interleave\nFile size : 1.13 GiB\nDuration : 1h 45mn\nOverall bit rate : 1 529 Kbps\n\nVideo\nID : 0\nFormat : MPEG-4 Visual\nFormat profile : Advanced Simple@L5\nFormat settings, BVOP : Yes\nFormat settings, QPel : No\nFormat settings, GMC : No warppoints\nFormat settings, Matrix : Default (H.263)\nCodec ID : XVID\nCodec ID/Hint : XviD\nDuration : 1h 45mn\nBit rate : 1 072 Kbps\nWidth : 640 pixels\nHeight : 360 pixels\nDisplay aspect ratio : 16:9\nFrame rate : 23.976 fps\nColor space : YUV\nChroma subsampling : 4:2:0\nBit depth : 8 bits\nScan type : Progressive\nBits/(Pixel*Frame) : 0.194\nStream size : 812 MiB (70%)\nWriting library : XviD 1.2.1 (UTC 2008-12-04)\n\nAudio\nID : 1\nFormat : AC-3\nFormat/Info : Audio Coding 3\nMode extension : CM (complete main)\nCodec ID : 2000\nDuration : 1h 45mn\nBit rate mode : Constant\nBit rate : 448 Kbps\nChannel(s) : 6 channels\nChannel positions : Front: L C R, Side: L R, LFE\nSampling rate : 48.0 KHz\nBit depth : 16 bits\nStream size : 339 MiB (29%)\nAlignment : Aligned on interleaves\nInterleave, duration : 42 ms (1.00 video frame)\nInterleave, preload duration : 512 ms\n\n\nPlot:\nThe affair between a politician and a ballerina is affected by mysterious forces keeping the lovers apart.\n &lt;a href=&quot;\nhttp://leetleech.org/images/38444654475837186283.png&quot; rel=&quot;nofollow&quot; target=&quot;_NEW&quot;&gt;\nhttp://leetleech.org/images/38444654475837186283.png&lt;/a&gt;\n &lt;a href=&quot;\nhttp://leetleech.org/images/70728915200113183171.png&quot; rel=&quot;nofollow&quot; target=&quot;_NEW&quot;&gt;\nhttp://leetleech.org/images/70728915200113183171.png&lt;/a&gt;\n &lt;a href=&quot;\nhttp://leetleech.org/images/08935420428217929839.png&quot; rel=&quot;nofollow&quot; target=&quot;_NEW&quot;&gt;\nhttp://leetleech.org/images/08935420428217929839.png&lt;/a&gt;\n &lt;a href=&quot;\nhttp://leetleech.org/images/21572843190767685778.png&quot; rel=&quot;nofollow&quot; target=&quot;_NEW&quot;&gt;\nhttp://leetleech.org/images/21572843190767685778.png&lt;/a&gt;\n &lt;a href=&quot;\nhttp://leetleech.org/images/02155140385860902382.png&quot; rel=&quot;nofollow&quot; target=&quot;_NEW&quot;&gt;\nhttp://leetleech.org/images/02155140385860902382.png&lt;/a&gt;\n","torrent":{"xt":"urn:btih:0e8e14269075dd949a0b6894bfe816819cf355c2","amp;dn":"The.Adjustment.Bureau.2011.480p.BRRip.XviD.Ac3.Feel-Free","amp;tr":["udp%3A%2F%2Ftracker.openbittorrent.com%3A80","udp%3A%2F%2Fopen.demonii.com%3A1337","udp%3A%2F%2Ftracker.coppersurfer.tk%3A6969","udp%3A%2F%2Fexodus.desync.com%3A6969"],"infoHash":"0e8e14269075dd949a0b6894bfe816819cf355c2","infoHashBuffer":{"type":"Buffer","data":[14,142,20,38,144,117,221,148,154,11,104,148,191,232,22,129,156,243,85,194]},"announce":[],"urlList":[]}}